<?xml version="1.0" standalone="no"?>
<!DOCTYPE svg PUBLIC "-//W3C//DTD SVG 20010904//EN"
 "http://www.w3.org/TR/2001/REC-SVG-20010904/DTD/svg10.dtd">
<svg version="1.0" xmlns="http://www.w3.org/2000/svg"
 width="300.000000pt" height="300.000000pt" viewBox="0 0 300.000000 300.000000"
 preserveAspectRatio="xMidYMid meet">
<metadata>
Created by potrace 1.10, written by Peter Selinger 2001-2011
</metadata>
<g transform="translate(0.000000,300.000000) scale(0.100000,-0.100000)"
fill="#000000" stroke="none">
<path d="M510 1935 c-8 -2 -50 -9 -92 -16 l-78 -13 0 -216 c0 -295 19 -362
136 -477 51 -49 179 -123 213 -123 26 0 145 64 195 104 54 45 107 122 131 191
15 42 18 89 19 286 l1 237 -65 12 c-61 11 -427 23 -460 15z m443 -71 l27 -6 0
-198 c0 -169 -3 -205 -19 -253 -37 -107 -107 -181 -223 -238 l-47 -23 -53 25
c-67 31 -177 138 -208 204 -23 47 -25 64 -30 263 -3 118 -1 216 4 219 33 21
469 26 549 7z"/>
<path d="M520 1773 c-40 -36 -51 -97 -24 -142 10 -17 57 -64 105 -105 l87 -75
88 75 c49 41 97 90 108 109 24 46 15 98 -24 137 -36 36 -103 39 -144 7 l-26
-20 -26 20 c-40 32 -105 28 -144 -6z m157 -40 c6 -2 26 3 44 12 74 39 139 10
139 -61 0 -29 -10 -44 -62 -94 -34 -32 -73 -64 -86 -71 -28 -16 -43 -8 -126
65 -80 70 -89 143 -23 171 27 11 37 11 67 -2 19 -8 40 -17 47 -20z"/>
<path d="M430 1573 c0 -35 9 -84 22 -122 21 -57 29 -68 76 -98 29 -19 55 -40
57 -46 2 -7 6 -23 9 -37 4 -21 50 -60 70 -60 3 0 6 42 6 93 l0 93 -65 64 c-51
51 -65 60 -71 47 -4 -11 4 -29 21 -49 46 -54 7 -46 -41 8 -34 38 -44 57 -44
84 0 50 -10 80 -26 80 -10 0 -14 -15 -14 -57z m189 -177 c13 -16 22 -76 11
-76 -5 0 -28 19 -52 42 -24 23 -35 39 -26 35 10 -3 20 -2 23 3 9 14 31 12 44
-4z"/>
<path d="M916 1615 c-3 -9 -6 -32 -6 -51 0 -20 -5 -45 -11 -57 -17 -32 -71
-87 -86 -87 -21 0 -15 14 17 45 34 32 38 45 13 45 -9 0 -42 -26 -75 -58 l-58
-59 0 -91 c0 -51 3 -92 7 -92 3 0 21 11 40 26 24 18 33 33 33 54 0 24 8 34 48
57 26 15 52 34 58 42 26 34 55 139 52 186 -3 49 -20 70 -32 40z m-106 -220
c10 -12 7 -19 -17 -39 -36 -33 -43 -32 -43 2 0 46 35 68 60 37z"/>
<path d="M1303 1680 c-1 -101 -5 -156 -13 -165 -18 -21 -53 -18 -84 6 l-28 22
-21 -21 c-20 -21 -20 -22 -3 -41 55 -60 180 -45 206 24 5 13 10 90 11 172 l1
148 -33 3 -34 3 -2 -151z"/>
<path d="M1464 1687 c2 -158 12 -188 70 -223 41 -25 138 -25 184 0 56 30 72
79 72 234 l0 132 -32 0 -33 0 0 -112 c0 -149 -8 -184 -45 -203 -37 -19 -63
-19 -99 0 -41 20 -51 61 -51 196 l0 119 -34 0 -35 0 3 -143z"/>
<path d="M1880 1640 l0 -190 98 0 c153 0 225 43 252 152 22 85 -22 172 -105
209 -30 14 -65 19 -142 19 l-103 0 0 -190z m217 113 c42 -20 77 -86 69 -134
-11 -74 -64 -110 -153 -107 l-58 3 -3 128 -3 127 57 0 c32 0 71 -7 91 -17z"/>
<path d="M2310 1640 l0 -190 144 0 145 0 -2 28 -2 27 -95 2 c-52 1 -101 2
-107 2 -9 1 -13 18 -13 51 l0 50 95 0 95 0 0 30 0 30 -95 0 -95 0 0 50 0 50
105 0 105 0 0 30 0 30 -140 0 -140 0 0 -190z"/>
<path d="M1141 1315 c1 -43 2 -46 9 -22 5 16 5 38 0 50 -7 17 -9 10 -9 -28z"/>
<path d="M1196 1336 c-3 -13 -2 -35 3 -48 8 -19 10 -15 10 25 1 52 -4 60 -13
23z"/>
<path d="M1240 1315 c0 -54 18 -60 22 -7 2 20 8 37 15 37 6 0 15 3 19 8 4 4
-7 7 -24 7 -31 0 -32 -1 -32 -45z"/>
<path d="M1335 1324 c-19 -47 -19 -59 1 -40 8 9 13 20 9 25 -3 5 -1 12 5 16 5
3 10 -3 10 -13 0 -11 7 -25 15 -32 8 -7 15 -8 15 -2 0 13 -29 82 -35 82 -3 0
-12 -16 -20 -36z"/>
<path d="M1418 1354 c-4 -6 -5 -27 -1 -47 4 -29 10 -37 26 -37 19 0 19 1 4 13
-9 6 -17 28 -19 47 -2 19 -6 30 -10 24z"/>
<path d="M1470 1350 c0 -5 7 -10 16 -10 12 0 15 -6 11 -23 -4 -12 -2 -29 3
-37 7 -11 10 -5 10 23 0 20 5 37 10 37 6 0 10 5 10 10 0 6 -13 10 -30 10 -16
0 -30 -4 -30 -10z"/>
<path d="M1559 1356 c-2 -3 -3 -24 0 -48 4 -41 4 -41 12 -15 7 27 -1 73 -12
63z"/>
<path d="M1613 1340 c-7 -18 -7 -32 1 -50 l11 -25 3 28 c2 15 2 37 -1 50 -3
22 -4 22 -14 -3z"/>
<path d="M1697 1353 c-13 -21 -11 -77 2 -81 10 -3 12 0 8 12 -4 10 1 24 14 37
11 11 17 24 14 29 -7 12 -32 13 -38 3z"/>
<path d="M1811 1347 c-11 -14 -5 -27 11 -27 5 0 6 5 3 10 -3 6 1 10 9 10 9 0
16 5 16 10 0 15 -26 12 -39 -3z"/>
<path d="M1892 1348 c-34 -34 6 -90 48 -68 35 19 20 80 -20 80 -9 0 -21 -5
-28 -12z m42 -13 c19 -19 10 -45 -14 -45 -22 0 -34 28 -19 46 14 17 14 17 33
-1z"/>
<path d="M1990 1345 c-26 -31 14 -95 43 -66 8 8 6 11 -10 11 -21 0 -38 24 -27
41 3 5 16 9 30 9 14 0 22 4 19 10 -9 15 -41 12 -55 -5z"/>
<path d="M2075 1348 c-6 -17 0 -66 8 -75 4 -3 7 15 7 40 0 46 -6 60 -15 35z"/>
<path d="M2134 1343 c-3 -10 -10 -28 -15 -41 -12 -32 -11 -36 5 -22 8 6 17 21
19 33 4 23 7 19 22 -29 3 -9 8 -14 11 -11 8 7 -18 87 -28 87 -5 0 -11 -8 -14
-17z"/>
<path d="M2206 1348 c-4 -9 -6 -29 -4 -45 2 -23 8 -28 33 -30 24 -2 26 -1 10
6 -13 5 -22 21 -26 47 -4 28 -7 34 -13 22z"/>
<path d="M2312 1348 c-7 -7 -12 -22 -12 -35 0 -29 44 -53 62 -35 9 9 6 12 -15
12 -22 0 -27 5 -27 25 0 20 5 25 26 25 14 0 23 4 19 10 -8 14 -38 13 -53 -2z"/>
<path d="M2407 1319 c-11 -27 -12 -39 -4 -36 6 2 14 14 18 28 l6 24 12 -29 c6
-16 14 -26 17 -23 8 7 -15 77 -25 77 -4 0 -15 -18 -24 -41z"/>
<path d="M2490 1314 c0 -52 11 -54 14 -3 1 18 7 34 15 37 8 3 12 -4 11 -19 -3
-39 -1 -59 8 -59 5 0 8 19 8 43 -1 38 -3 42 -28 45 -27 3 -28 2 -28 -44z"/>
<path d="M2575 1318 c1 -40 3 -43 30 -45 27 -2 28 -2 8 7 -16 7 -21 16 -19 37
3 19 9 27 20 25 9 -2 16 2 16 8 0 5 -13 10 -28 10 -27 0 -28 -2 -27 -42z"/>
<path d="M1840 1306 c0 -9 -7 -16 -15 -16 -8 0 -15 -4 -15 -10 0 -11 11 -13
34 -4 18 7 21 30 6 39 -5 3 -10 -1 -10 -9z"/>
<path d="M1158 1223 c-20 -5 -28 -25 -21 -52 6 -25 41 -38 57 -21 8 10 7 12
-6 7 -9 -3 -22 1 -29 9 -18 22 2 50 32 46 19 -2 21 -1 9 7 -8 6 -17 10 -20 10
-3 -1 -12 -3 -22 -6z"/>
<path d="M1242 1218 c-17 -17 -15 -53 3 -68 24 -20 65 3 65 34 0 37 -44 58
-68 34z m55 -24 c2 -7 -4 -19 -13 -29 -15 -15 -19 -15 -32 -1 -20 20 -8 48 20
44 12 -2 23 -8 25 -14z"/>
<path d="M1339 1230 c-5 -23 -4 -82 1 -85 12 -7 21 68 10 79 -6 6 -10 8 -11 6z"/>
<path d="M1448 1223 c-20 -5 -24 -28 -8 -38 6 -3 10 1 10 9 0 9 7 16 15 16 8
0 15 5 15 10 0 10 -3 11 -32 3z"/>
<path d="M1513 1196 c2 -49 30 -72 53 -42 16 23 19 66 4 66 -5 0 -10 -14 -10
-31 0 -44 -33 -36 -42 11 l-6 35 1 -39z"/>
<path d="M1660 1218 c0 -4 7 -8 15 -8 11 0 13 -7 9 -29 -4 -16 -1 -32 5 -35 7
-5 11 5 11 28 0 20 5 36 10 36 6 0 10 4 10 8 0 5 -13 9 -30 9 -16 0 -30 -4
-30 -9z"/>
<path d="M1791 1185 c1 -28 4 -39 6 -25 3 14 10 28 17 32 8 5 6 12 -6 25 -17
16 -18 15 -17 -32z"/>
<path d="M1893 1208 c-13 -30 1 -68 25 -68 24 0 46 25 36 41 -5 9 -10 6 -15
-9 -11 -28 -39 -18 -39 14 0 19 5 24 25 24 14 0 25 5 25 10 0 20 -47 10 -57
-12z"/>
<path d="M1388 1200 c-3 -44 -3 -50 6 -52 5 -2 9 14 10 35 1 38 -13 53 -16 17z"/>
<path d="M1603 1183 c3 -32 8 -38 31 -41 14 -2 26 2 26 8 0 6 -8 10 -17 8 -14
-2 -19 5 -21 30 -2 17 -8 32 -13 32 -5 0 -8 -17 -6 -37z"/>
<path d="M1843 1194 c-12 -26 -8 -54 8 -54 5 0 9 18 9 40 0 22 -1 40 -2 40 -2
0 -8 -12 -15 -26z"/>
<path d="M1470 1171 c0 -18 -4 -21 -21 -16 -15 5 -19 4 -15 -4 10 -16 31 -14
46 4 10 12 10 19 2 27 -9 9 -12 7 -12 -11z"/>
</g>
</svg>
